<?xml version="1.0" encoding="utf-8"?>
<!-- Generator: Adobe Illustrator 25.0.0, SVG Export Plug-In . SVG Version: 6.00 Build 0)  -->
<svg version="1.1" id="图层_1" xmlns="http://www.w3.org/2000/svg" xmlns:xlink="http://www.w3.org/1999/xlink" x="0px" y="0px"
	 viewBox="0 0 767.42 222.61" style="enable-background:new 0 0 767.42 222.61;" xml:space="preserve">
<style type="text/css">
	.st0{fill:#FFFFFF;}
	.st1{fill:url(#SVGID_1_);}
	.st2{fill:url(#SVGID_2_);}
	.st3{font-family:'Arial-ItalicMT';}
	.st4{font-size:36px;}
</style>
<g>
	<g>
		<path d="M16.23,191.12c-0.8-1.09-2.07-1.63-3.36-1.63c-2.99,0-5.11,2.63-5.11,5.58c0,3.11,2.1,5.56,5.11,5.56
			c1.63,0,2.93-0.66,3.89-1.87l1.2,1.01c-1.2,1.61-2.93,2.35-5.07,2.35c-3.85,0-6.83-2.97-6.83-7.05c0-3.94,2.84-7.05,6.83-7.05
			c1.82,0,3.6,0.62,4.74,2.1L16.23,191.12z"/>
		<path d="M53.53,196.64c0,2.92-1.37,5.46-5.06,5.46s-5.06-2.55-5.06-5.46v-8.3H45v8.07c0,2.16,0.8,4.21,3.47,4.21
			c2.67,0,3.47-2.05,3.47-4.21v-8.07h1.59V196.64z"/>
		<path d="M20.5,188.34c0.61,0,1.08,0.49,1.08,1.08c0,0.62-0.45,1.08-1.08,1.08c-0.62,0-1.08-0.45-1.08-1.08
			C19.43,188.84,19.91,188.34,20.5,188.34 M19.77,192.9h1.47v8.87h-1.47V192.9z"/>
		<path d="M28.64,194.15h-2.62v4.44c0,1.13,0.03,2.05,1.33,2.05c0.44,0,0.9-0.09,1.3-0.31l0.05,1.34c-0.5,0.23-1.17,0.32-1.73,0.32
			c-2.1,0-2.44-1.13-2.44-2.97v-4.87H22.6v-1.25h1.94v-2.52h1.47v2.52h2.62v1.26H28.64z"/>
		<path d="M34.49,203.79c-0.58,1.5-1.17,2.52-2.95,2.52c-0.41,0-0.93-0.04-1.33-0.23l0.19-1.29c0.31,0.12,0.62,0.15,1.05,0.15
			c0.97,0,1.33-0.58,1.65-1.46l0.61-1.66l-3.67-8.92h1.73l2.75,6.96h0.04l2.63-6.96h1.61L34.49,203.79z"/>
		<path d="M55.48,195c0-0.81-0.08-1.51-0.08-2.11h1.41c0,0.48,0.04,0.97,0.04,1.46h0.04c0.4-0.86,1.5-1.69,2.95-1.69
			c2.34,0,3.37,1.47,3.37,3.61v5.47h-1.47v-5.33c0-1.47-0.65-2.4-2.03-2.4c-1.91,0-2.75,1.39-2.75,3.41v4.32h-1.47V195z"/>
		<path d="M66.03,188.34c0.6,0,1.08,0.49,1.08,1.08c0,0.62-0.45,1.08-1.08,1.08c-0.62,0-1.08-0.45-1.08-1.08
			C64.95,188.84,65.41,188.34,66.03,188.34 M65.28,192.9h1.47v8.87h-1.47V192.9z"/>
		<polygon points="73.83,201.77 72.2,201.77 68.59,192.9 70.31,192.9 73.08,199.84 73.12,199.84 75.75,192.9 77.34,192.9 		"/>
		<path d="M95.17,199.43c0.58,0.72,1.24,1.2,2.27,1.2c0.93,0,1.95-0.4,1.95-1.37c0-0.94-0.94-1.2-1.9-1.41
			c-1.69-0.37-3.12-0.73-3.12-2.58c0-1.73,1.67-2.62,3.32-2.62c1.25,0,2.4,0.48,3.01,1.61l-1.24,0.81
			c-0.39-0.62-1.01-1.06-1.87-1.06c-0.81,0-1.74,0.4-1.74,1.24c0,0.74,1.06,1.06,2.24,1.29c1.57,0.31,2.89,0.86,2.89,2.66
			c0,2.01-1.78,2.78-3.55,2.78c-1.5,0-2.58-0.4-3.45-1.65L95.17,199.43z"/>
		<path d="M86.14,200.15c-1.05,1.34-2.3,1.83-3.94,1.83c-2.79,0-4.5-2.08-4.5-4.66c0-2.75,1.94-4.66,4.55-4.66
			c2.5,0,4.21,1.7,4.21,4.65v0.48h-7.16c0.12,1.54,1.29,2.84,2.91,2.84c1.26,0,2.12-0.45,2.83-1.35L86.14,200.15z M84.88,196.54
			c-0.05-1.5-1.05-2.51-2.67-2.51c-1.63,0-2.71,1.01-2.91,2.51H84.88z"/>
		<path d="M88.36,195c0-0.81-0.08-1.51-0.08-2.11h1.41c0,0.48,0.04,0.97,0.04,1.46h0.04c0.4-0.86,1.5-1.69,2.96-1.69
			c0.19,0,0.4,0.01,0.61,0.09l-0.09,1.49c-0.25-0.08-0.53-0.12-0.8-0.12c-1.81,0-2.59,1.27-2.59,3.31v4.32h-1.47V195H88.36z"/>
		<path d="M103.46,188.34c0.61,0,1.08,0.49,1.08,1.08c0,0.62-0.45,1.08-1.08,1.08c-0.62,0-1.08-0.45-1.08-1.08
			C102.39,188.84,102.85,188.34,103.46,188.34 M102.72,192.9h1.47v8.87h-1.47V192.9z"/>
		<path d="M111.96,194.15h-2.62v4.44c0,1.13,0.01,2.05,1.33,2.05c0.44,0,0.9-0.09,1.3-0.31l0.05,1.34c-0.5,0.23-1.17,0.32-1.73,0.32
			c-2.1,0-2.44-1.13-2.44-2.97v-4.87h-1.93v-1.25h1.93v-2.52h1.47v2.52h2.62v1.26H111.96z"/>
		<path d="M117.52,203.79c-0.58,1.5-1.17,2.52-2.95,2.52c-0.42,0-0.93-0.04-1.33-0.23l0.19-1.29c0.31,0.12,0.62,0.15,1.05,0.15
			c0.97,0,1.33-0.58,1.65-1.46l0.61-1.66l-3.68-8.92h1.73l2.75,6.96h0.04l2.63-6.96h1.61L117.52,203.79z"/>
		<path d="M130.59,192.66c2.74,0,4.74,1.9,4.74,4.66c0,2.78-2.01,4.66-4.74,4.66c-2.72,0-4.73-1.89-4.73-4.66
			C125.85,194.56,127.86,192.66,130.59,192.66 M130.59,200.63c1.91,0,3.15-1.45,3.15-3.29c0-1.86-1.24-3.29-3.15-3.29
			c-1.91,0-3.15,1.43-3.15,3.29C127.44,199.18,128.68,200.63,130.59,200.63"/>
		<path d="M137.88,194.15h-1.93v-1.25h1.93v-1.99c0-2.16,0.76-3.71,3.15-3.71c0.37,0,0.85,0.08,1.14,0.23l-0.21,1.33
			c-0.32-0.12-0.66-0.19-1-0.19c-1.54,0-1.59,1.12-1.59,2.66v1.66h2.16v1.25h-2.16v7.62h-1.47v-7.61H137.88z"/>
		<polygon points="147.59,188.34 149.18,188.34 149.18,194.03 156.34,194.03 156.34,188.34 157.93,188.34 157.93,201.77 
			156.34,201.77 156.34,195.52 149.18,195.52 149.18,201.77 147.59,201.77 		"/>
		<path d="M164.52,192.66c2.74,0,4.74,1.9,4.74,4.66c0,2.78-2.01,4.66-4.74,4.66c-2.72,0-4.74-1.89-4.74-4.66
			C159.78,194.56,161.8,192.66,164.52,192.66 M164.52,200.63c1.91,0,3.15-1.45,3.15-3.29c0-1.86-1.24-3.29-3.15-3.29
			s-3.15,1.43-3.15,3.29C161.37,199.18,162.61,200.63,164.52,200.63"/>
		<path d="M171.11,195c0-0.81-0.08-1.51-0.08-2.11h1.39c0,0.48,0.04,0.97,0.04,1.46h0.04c0.4-0.86,1.5-1.69,2.96-1.69
			c2.32,0,3.37,1.47,3.37,3.61v5.47h-1.47v-5.33c0-1.47-0.64-2.4-2.02-2.4c-1.91,0-2.75,1.39-2.75,3.41v4.32h-1.47V195H171.11z"/>
		<path d="M189.92,201.37c0,3.2-1.73,4.95-4.83,4.95c-1.73,0-3.11-0.45-4.36-1.69l1.06-1.22c0.93,1.01,1.94,1.54,3.29,1.54
			c2.66,0,3.36-1.7,3.36-3.59v-1.14h-0.04c-0.7,1.14-1.95,1.65-3.13,1.65c-2.79,0-4.71-1.94-4.71-4.55c0-2.89,1.89-4.66,4.71-4.66
			c1.2,0,2.54,0.57,3.13,1.74h0.04v-1.51h1.47V201.37z M185.29,200.51c2.03,0,3.16-1.51,3.16-3.23c0-1.91-1.29-3.27-3.16-3.27
			c-1.86,0-3.12,1.45-3.12,3.29C182.16,199.13,183.56,200.51,185.29,200.51"/>
		<path d="M211.72,192.66c2.72,0,4.74,1.9,4.74,4.66c0,2.78-2.01,4.66-4.74,4.66c-2.72,0-4.74-1.89-4.74-4.66
			C206.98,194.56,208.98,192.66,211.72,192.66 M211.72,200.63c1.91,0,3.15-1.45,3.15-3.29c0-1.86-1.23-3.29-3.15-3.29
			c-1.91,0-3.15,1.43-3.15,3.29C208.57,199.18,209.8,200.63,211.72,200.63"/>
		<path d="M218.3,195c0-0.81-0.08-1.51-0.08-2.11h1.39c0,0.48,0.04,0.97,0.04,1.46h0.04c0.4-0.86,1.5-1.69,2.96-1.69
			c2.34,0,3.37,1.47,3.37,3.61v5.47h-1.47v-5.33c0-1.47-0.64-2.4-2.03-2.4c-1.91,0-2.75,1.39-2.75,3.41v4.32h-1.47L218.3,195
			L218.3,195z"/>
		<path d="M237.12,201.37c0,3.2-1.73,4.95-4.83,4.95c-1.73,0-3.11-0.45-4.36-1.69l1.06-1.22c0.93,1.01,1.94,1.54,3.29,1.54
			c2.66,0,3.36-1.7,3.36-3.59v-1.14h-0.04c-0.7,1.14-1.95,1.65-3.13,1.65c-2.79,0-4.71-1.94-4.71-4.55c0-2.89,1.9-4.66,4.71-4.66
			c1.2,0,2.54,0.57,3.13,1.74h0.04v-1.51h1.47V201.37z M232.49,200.51c2.03,0,3.16-1.51,3.16-3.23c0-1.91-1.29-3.27-3.16-3.27
			c-1.86,0-3.13,1.45-3.13,3.29C229.35,199.13,230.76,200.51,232.49,200.51"/>
		<polygon points="196.72,188.34 198.32,188.34 198.32,194.15 198.54,194.15 204.65,188.34 206.94,188.34 200.31,194.47 
			207.27,201.77 204.93,201.77 198.54,194.94 198.32,194.94 198.32,201.77 196.72,201.77 		"/>
	</g>
	<g>
		<path d="M18.92,164.26h8.06v-1.26h-9.53v-2.34c2.62-0.24,5.07-0.58,7.32-1.04l0.24-0.05l-0.72-1.33l-0.12,0.03
			c-5.19,1.04-10.46,1.55-15.7,1.55H8.22l0.37,1.35h0.13c2.58-0.07,5.05-0.2,7.37-0.4v2.22H6.55v1.26h8.02
			c-0.85,0.92-1.99,1.83-3.39,2.72c-1.74,1.12-3.47,1.99-5.15,2.59l-0.17,0.07l0.6,1.24l0.15-0.05c1.74-0.64,3.65-1.65,5.7-3
			c1.51-1.08,2.79-2.2,3.8-3.36v5.15h-5.72v9.71h12.89v-9.71h-5.82v-5.15c1.98,2.24,5.05,4.32,9.11,6.16l0.12,0.05l1.1-1.18
			l-0.24-0.09C23.7,167.81,20.81,166.09,18.92,164.26z M21.91,174.96v3.09H11.73v-3.09H21.91z M11.73,173.7v-2.84h10.19v2.84H11.73z
			"/>
		<path d="M133.14,173.14c-1.53-2.03-2.55-4.24-3.11-6.87h8.38v-1.43h-10.16c0.25-1.74,0.45-3.78,0.62-6.24l0.01-0.19h-1.41
			l-0.01,0.16c-0.16,2.26-0.37,4.42-0.65,6.27h-8.55v1.43h8.31c-0.53,2.71-1.24,4.73-2.1,6.14c-1.47,2.42-3.77,4.45-7,6.19
			l-0.2,0.11l1.04,1.1l0.12-0.07c3.49-1.87,5.92-4.06,7.42-6.71c0.9-1.57,1.61-3.74,2.16-6.77h0.6c0.56,2.84,1.65,5.29,3.31,7.6
			c1.54,2.3,3.52,4.22,6.06,5.87l0.15,0.09l0.93-1.39l-0.16-0.09C136.49,176.9,134.61,175.2,133.14,173.14z"/>
		<path d="M102.73,160.82l-0.11-0.12c-0.88-0.97-1.78-1.71-2.76-2.35l-0.13-0.08l-0.86,1.02l0.16,0.11
			c1.01,0.73,1.87,1.49,2.56,2.31H90.04v1.37h10.17v3.92h-7.64v10.8h1.54v-9.43h6.1v11.49h1.54v-11.49h6.39v6.97
			c0,0.82-0.33,0.82-0.46,0.82c-0.93,0-2.01-0.24-3.21-0.7l-0.27-0.11l0.13,1.49l0.11,0.04c1.24,0.44,2.3,0.64,3.24,0.64
			c1.3,0,1.99-0.69,1.99-1.99v-8.53h-7.93v-3.92h10.17v-1.37h-9.92L102.73,160.82z"/>
		<path d="M38.58,163.46l0.15,0.15l0.85-1.12l-0.11-0.11c-1.09-1.06-2.32-2.02-3.67-2.84l-0.13-0.08l-0.77,1.02l0.16,0.11
			C36.24,161.35,37.43,162.32,38.58,163.46z"/>
		<path d="M50.45,167.42h4.89v-1.26h-5.19v-3.03h4.01v-1.26h-4.01v-3.47H48.8v3.47h-3.9v-3.47h-1.35v3.47h-3.37v1.26h3.37v3.03
			h-4.73v1.26h4.58c-0.33,0.7-0.81,1.46-1.41,2.23c-0.82,1.05-1.83,2.02-3.04,2.89l-0.16,0.12l1,0.97l0.12-0.09
			c1.12-0.82,2.08-1.75,2.97-2.84v6.33c0,0.81,0.12,1.42,0.7,1.79c0.57,0.37,2.08,0.48,6.76,0.48c2.16,0,3.01-0.24,3.35-0.97
			c0.19-0.39,0.31-1.41,0.37-3.11v-0.12l-1.45-0.7l-0.01,0.52c-0.04,1.09-0.07,2.11-0.21,2.46c-0.2,0.49-0.8,0.57-2.05,0.57
			c-3.45,0-5.29-0.01-5.76-0.28c-0.29-0.17-0.35-0.36-0.35-0.7v-2.39h6.72v-4.55c1.02,1.02,2.23,1.99,3.64,2.91l0.12,0.08l1.05-1.18
			l-0.19-0.11C53.32,170.4,51.59,168.96,50.45,167.42z M44.23,173.34v-2.47h5.36v2.47H44.23z M48.79,163.14v3.03h-3.9v-3.03H48.79z
			 M43.69,169.61c0.49-0.72,0.88-1.45,1.2-2.19h3.97c0.46,0.76,1.04,1.49,1.69,2.19H43.69z"/>
		<path d="M39,170.8l-1.12-0.77l-0.07,0.23c-0.92,3.08-2.2,5.96-3.82,8.57l-0.09,0.15l1.22,0.86l0.09-0.17
			c1.69-3.01,2.91-5.87,3.74-8.74L39,170.8z"/>
		<path d="M37.57,168.81l0.15,0.16l0.85-1.09l-0.11-0.11c-1.1-1.2-2.3-2.22-3.67-3.12l-0.13-0.09l-0.77,1l0.15,0.11
			C35.31,166.55,36.47,167.59,37.57,168.81z"/>
		<path d="M147.32,169.23h17.1v2.44h1.33v-3.71h-1.53l0.2-8.47h-5.23v1.26h3.85l-0.04,1.55h-3.81v1.29h3.78l-0.03,1.46h-4.12v1.26
			h4.09l-0.04,1.65h-4.81l0.85-0.94l-0.13-0.12c-0.54-0.5-1.05-0.96-1.58-1.39c0.48-0.48,0.92-1,1.31-1.57l0.08-0.12l-0.49-0.56
			l0.8-0.89l-0.21-0.2c-0.42-0.39-0.88-0.8-1.34-1.17c0.52-0.5,1.01-1.06,1.53-1.75l0.08-0.12l-0.81-0.9l-0.13,0.19
			c-0.46,0.66-1,1.26-1.63,1.85c-0.65-0.48-1.37-0.97-2.2-1.47l-0.13-0.08l-0.77,0.89l0.17,0.11c0.76,0.49,1.39,0.92,1.97,1.34
			c-0.69,0.52-1.47,0.97-2.31,1.35l-0.19,0.08l0.65,1.05l0.15-0.07c0.93-0.41,1.81-0.96,2.67-1.63c0.48,0.41,0.93,0.86,1.31,1.24
			l-0.03,0.04c-0.41,0.58-0.88,1.13-1.43,1.65c-0.62-0.45-1.26-0.88-1.97-1.34l-0.13-0.09l-0.76,0.93l0.17,0.11
			c0.53,0.33,1.09,0.72,1.71,1.18c-0.68,0.5-1.41,0.94-2.26,1.33l-0.19,0.08l0.65,1h-4.73l-0.01-1.74h4.09v-1.26h-4.12l-0.01-1.37
			h3.98v-1.29h-3.98l-0.01-0.93c1.45-0.27,2.84-0.73,4.28-1.42l0.17-0.08l-0.74-1.21l-0.15,0.05c-1.69,0.73-3.24,1.2-4.77,1.42
			l-0.16,0.03l0.19,7.8h-1.53v3.71h1.35v-2.42H147.32z M153.63,167.92c0.94-0.42,1.82-0.96,2.62-1.58c0.64,0.57,1.14,1.05,1.62,1.54
			l0.08,0.09h-4.44L153.63,167.92z"/>
		<path d="M166.5,174.43h-10.11c0-0.01-0.01-0.03-0.01-0.05c-0.01-0.04-0.03-0.09-0.05-0.15c2.38-0.73,4.45-1.62,6.18-2.67
			l0.09-0.05v-1.09h-13.36v1.26h10.58c-1.13,0.49-2.42,0.94-3.85,1.33l0,0c-0.05,0.01-0.19,0.04-0.33,0.08h-0.01
			c-0.01,0-0.01,0-0.03,0.01c-0.16,0.04-0.4,0.11-0.62,0.16c-0.11,0.03-0.2,0.05-0.31,0.08l-0.21,0.05l0.11,0.2
			c0.13,0.25,0.24,0.5,0.36,0.84h-9.68v1.26h10.05c0.12,0.54,0.23,1.04,0.25,1.7c0.03,0.6-0.03,0.85-0.2,0.98
			c-0.11,0.08-0.21,0.12-0.45,0.12c-0.69,0-1.49-0.17-2.4-0.54l-0.27-0.11l0.13,1.49l0.11,0.04c0.98,0.32,1.86,0.48,2.68,0.48
			c0.53,0,0.97-0.13,1.27-0.4c0.39-0.35,0.56-0.96,0.56-2.07c0-0.56-0.08-1.06-0.21-1.7h9.76v-1.25H166.5z"/>
		<path d="M68.97,172.75l-0.23-1.37l-0.21,0.12c-0.64,0.36-1.1,0.56-1.97,0.9v-6.18h2.38v-1.25h-2.38v-5.91h-1.35v5.91h-2.74v1.25
			h2.74v6.71c-0.97,0.37-1.87,0.72-2.96,1.02l-0.21,0.05l0.7,1.31l0.15-0.04c2.02-0.66,3.97-1.47,5.96-2.48L68.97,172.75z"/>
		<path d="M82.56,175.08c-0.13,1.55-0.29,2.67-0.44,3.09c-0.11,0.31-0.25,0.31-0.31,0.31c-0.27,0-0.77-0.48-1.39-1.83
			c-0.35-0.72-0.64-1.54-0.9-2.43c0,0,0,0,0.01-0.01l0.01-0.01c1.16-1.62,2.1-4.29,2.83-7.91l0.03-0.17l-1.42-0.28l-0.03,0.17
			c-0.5,2.59-1.16,4.7-1.93,6.25c-0.17-0.73-0.33-1.54-0.46-2.36c-0.28-1.83-0.48-3.8-0.57-5.84h5.48v-1.26h-5.55
			c-0.05-1.27-0.09-2.66-0.09-4.2v-0.17H76.4v0.17c0,1.69,0.03,3,0.08,4.2h-6.72v6.6c0,2.39-0.32,4.25-0.94,5.68
			c-0.61,1.41-1.47,2.58-2.66,3.57l-0.13,0.11l0.86,1.09l0.13-0.12c1.27-1.06,2.24-2.31,2.96-3.84c0.73-1.58,1.12-3.68,1.12-6.36
			v-1.04h3.36c-0.09,2.7-0.27,4.62-0.5,5.4c-0.23,0.72-0.57,0.72-0.69,0.72c-0.37,0-0.88-0.05-1.87-0.39l-0.24-0.08v1.47l0.12,0.04
			c0.96,0.29,1.61,0.41,2.18,0.41c0.72,0,1.26-0.45,1.61-1.34c0.36-0.96,0.61-3.41,0.76-7.3v-0.19h-4.73v-3.19h5.43
			c0.15,2.42,0.4,4.63,0.76,6.59c0.2,1.1,0.46,2.26,0.74,3.24c-1.14,1.62-2.64,3.11-4.59,4.45l-0.16,0.11l0.82,1.02l0.13-0.08
			c1.71-1.12,3.12-2.39,4.3-3.84c0.27,0.76,0.58,1.49,0.96,2.16c0.73,1.33,1.47,2.03,2.3,2.14c0.5,0.07,1-0.17,1.26-0.61
			c0.35-0.54,0.58-1.61,0.77-3.35l0.01-0.09l-1.26-1.01L82.56,175.08z"/>
		<path d="M80.97,162.41l0.08,0.2l1.21-0.84l-0.07-0.13c-0.56-1.09-1.14-1.94-1.95-2.87l-0.11-0.12l-1.1,0.74l0.12,0.15
			C80.01,160.59,80.53,161.43,80.97,162.41z"/>
	</g>
	<g>
		<path class="st0" d="M310.65,10.62L112.74,62.08c-0.29,0.07-0.84,0.27-1.18,0.49c-0.35,0.23-0.65,0.52-0.94,0.93l-42.96,56.74
			c-0.16,0.21-0.15,0.41-0.16,0.6c-0.01,0.33,0.27,0.65,0.53,0.7l43.01,9.36l2.52,0.88l8.02,1.73l5.51,0.77l53.99,11.65l4.86,1.47
			l6.21,1.34l4.25,0.54l84.41,18.23L310.65,10.62z"/>
		
			<linearGradient id="SVGID_1_" gradientUnits="userSpaceOnUse" x1="316.2787" y1="471.1635" x2="282.8292" y2="315.0654" gradientTransform="matrix(1 0 0 -1 0 482)">
			<stop  offset="0" style="stop-color:#BF2169"/>
			<stop  offset="0.1838" style="stop-color:#B42164"/>
			<stop  offset="0.4834" style="stop-color:#9A225A"/>
			<stop  offset="0.8594" style="stop-color:#76214B"/>
			<stop  offset="1" style="stop-color:#682045"/>
		</linearGradient>
		<path class="st1" d="M316.74,30.57c0.12,0.41,0.23,0.98,0.23,1.53c0,0.49-0.11,0.96-0.2,1.33l-34.13,133.31
			c-0.2,0.78-0.64,1.39-0.97,1.33l-0.56-0.12l29.97-157.8L316.74,30.57z"/>
		
			<linearGradient id="SVGID_2_" gradientUnits="userSpaceOnUse" x1="298.196" y1="474.2928" x2="173.2276" y2="342.7274" gradientTransform="matrix(1 0 0 -1 0 482)">
			<stop  offset="0" style="stop-color:#FBD5E0"/>
			<stop  offset="0.35" style="stop-color:#BF2169"/>
			<stop  offset="1" style="stop-color:#682045"/>
		</linearGradient>
		<path class="st2" d="M281.12,167.93l29.97-157.79L112.65,61.74c-0.33,0.09-0.9,0.29-1.27,0.54c-0.42,0.28-0.74,0.62-1.04,1.01
			l-43.23,57.1c-0.49,0.65-0.24,1.31,0.54,1.49l45.91,9.91c-4.01-1.5-7.02-3.68-8.57-5.5c-4.1-4.85-5.88-11.53-4.9-18.66
			c2.5-18.09,15.48-26.19,27.49-26.19c5.74,0,11.17,0.94,15.44,3.29l-0.7,8.05h-5.91l0.27-3.11c-2.16-1.34-9.88-2.56-16.24,0.03
			c-7.48,3.43-10.69,12.31-11.12,18.27c-0.29,4.25,0.31,9.81,3.28,13.84c2.99,4.05,11.38,7.14,21.25,3.84c4.38-1.54,6.35,3,6.35,3
			l-0.45,0.25c-6.52,3.88-12.76,4.99-18.17,4.62l64.37,13.89l8.98-16.43l-10.01-31.31h-4.17l0.49-5.66h10.68l8.58,26.81l11.89-21.71
			c0,0,2.03-5.1,8.54-5.1h2.18l-29.96,53.26c-0.31,0.54-0.61,1.04-0.96,1.46L281.12,167.93z M144.06,94.02h12.87l-3.44,39.63
			c0,0-8.46,0.42-7.72-8.18l2.24-25.78h-4.45L144.06,94.02z M157.69,87.01c-0.19,2.32-2.24,4.21-4.57,4.21
			c-2.32,0-4.05-1.89-3.84-4.21c0.21-2.32,2.24-4.2,4.57-4.2C156.18,82.8,157.92,84.68,157.69,87.01z M164.36,87.55l8.61-2.08
			l-0.74,8.55h6.48l-0.48,5.5h-6.47l-1.9,21.84c-0.2,2.35,0.05,4.1,0.74,5.23c0.65,1.04,1.67,1.54,3.16,1.54
			c4.87,0,4.69,4.66,4.69,4.66s-3.73,0.85-6.21,0.85c-4.02,0-6.97-1.09-8.72-3.27c-1.74-2.14-2.4-5.46-2.02-9.91L164.36,87.55z
			 M264.49,111.16c-0.41,4.75-0.97,8.13-1.69,10.32c-0.73,2.23-2.05,4.41-3.86,6.45c-3.4,3.8-8.34,5.72-14.67,5.72
			c-6.47,0-11.15-1.71-13.93-5.06c-2.75-3.35-3.47-8.54-2.86-15.6l1.63-18.99h-5.25l0.49-5.58h13.69l-0.45,5.58l-1.5,16.98
			c-0.37,4.24-0.39,7.37-0.13,9.28c0.21,1.81,0.82,3.32,1.77,4.48c1.83,2.23,4.36,3.33,7.72,3.33c3.23,0,5.9-1.01,8.15-3.11
			c2.11-1.94,3.39-6.14,3.94-12.48l1.65-18.98c0,0,0.44-5.07,5.96-5.07h1.31L264.49,111.16z"/>
	</g>
</g>
<text transform="matrix(1 0 0 1 332.7674 94.0193)"><tspan x="0" y="0" class="st3 st4">Laboratory of Wearable </tspan><tspan x="0" y="53.2" class="st3 st4">Materials for Healthcare</tspan></text>
</svg>
